<svg width="20" height="20" viewBox="0 0 20 20" fill="none" xmlns="http://www.w3.org/2000/svg">
<path fill-rule="evenodd" clip-rule="evenodd" d="M20 14.7829C20 17.6638 17.6638 20 14.7829 20H5.21714C2.33619 20 0 17.6638 0 14.7829V5.21714C0 2.33619 2.33619 0 5.21714 0H14.7829C17.6638 0 20 2.33619 20 5.21714V14.7829Z" fill="#999999"/>
<path fill-rule="evenodd" clip-rule="evenodd" d="M15 10C15 12.7618 12.7618 15 10 15C7.23818 15 5 12.7618 5 10C5 7.23818 7.23818 5 10 5C12.7618 5 15 7.23818 15 10Z" stroke="#1D1D1B" stroke-width="2" stroke-linecap="round" stroke-linejoin="round"/>
<path fill-rule="evenodd" clip-rule="evenodd" d="M17 3C17 3.552 16.552 4 16 4C15.448 4 15 3.552 15 3C15 2.448 15.448 2 16 2C16.552 2 17 2.448 17 3Z" fill="#1D1D1B"/>
</svg>
