<svg width="19" height="16" viewBox="0 0 19 16" fill="none" xmlns="http://www.w3.org/2000/svg">
<path fill-rule="evenodd" clip-rule="evenodd" d="M1.23913 0.842105C2.82935 2.90105 5.6777 4.84379 9.5 5.05263C9.28935 4.15831 9.2687 1.73221 10.9357 0.723368C11.6809 0.272842 12.3863 0 13.2174 0C14.2624 0 15.119 0.365474 16.031 1.25305C16.7737 1.14274 18.1599 0.535579 18.4887 0.297263C18.2747 1.13432 17.418 2.20968 16.7985 2.46484C17.3668 2.46232 18.6175 2.11705 19 1.91242C18.4688 2.78231 17.5411 3.616 17.0331 3.9621C17.6213 9.32631 12.9307 15.9933 6.19565 16C4.2717 16.0017 2.1817 15.5857 0 14.3158C2.15196 14.5726 4.45839 13.8619 5.78261 12.6316C4.11309 12.5928 2.42126 11.4459 1.65217 9.68421C2.489 9.94947 3.26057 10.0842 3.71739 9.68421C2.93839 9.59494 0.413043 8.18526 0.413043 5.45516C0.993783 5.94442 1.82896 6.45052 2.47826 6.31579C1.41509 5.6741 -0.12887 3.23116 1.23913 0.842105Z" fill="#999999"/>
</svg>
