<svg width="22" height="16" viewBox="0 0 22 16" fill="none" xmlns="http://www.w3.org/2000/svg">
<path fill-rule="evenodd" clip-rule="evenodd" d="M2.51374 0.631529L4.33017 0.408471C6.54261 0.136471 8.77035 0 11 0C13.2297 0 15.4574 0.136471 17.6698 0.408471L19.4863 0.631529C20.923 0.808471 22 2.00941 22 3.43341V12.5656C22 13.9896 20.923 15.1906 19.4863 15.3675L17.6698 15.5915C15.4574 15.8635 13.2297 16 11 16C8.77035 16 6.54261 15.8635 4.33017 15.5915L2.51374 15.3675C1.078 15.1906 0 13.9896 0 12.5656V3.43341C0 2.00941 1.078 0.808471 2.51374 0.631529ZM8.60879 3.76433V12.2349L15.3044 7.99962L8.60879 3.76433Z" fill="#999999"/>
</svg>
