<svg width="16" height="16" viewBox="0 0 16 16" fill="none" xmlns="http://www.w3.org/2000/svg">
<path fill-rule="evenodd" clip-rule="evenodd" d="M7.99994 0C12.4182 0 15.9999 3.58173 15.9999 8.00002C15.9999 12.4183 12.4182 16 7.99994 16C3.58165 16 0 12.4183 0 8.00002C0 3.58173 3.58165 0 7.99994 0" fill="#E6E7E8"/>
<mask id="mask0" style="mask-type:alpha" maskUnits="userSpaceOnUse" x="5" y="12" width="8" height="4">
<path fill-rule="evenodd" clip-rule="evenodd" d="M5.24121 12.1378H12.6095V16H5.24121V12.1378Z" fill="white"/>
</mask>
<g mask="url(#mask0)">
<path fill-rule="evenodd" clip-rule="evenodd" d="M12.6095 14.5352C11.2633 15.4923 9.65164 16.0044 7.99992 16C7.21454 16.0018 6.4334 15.8855 5.68263 15.6551C5.55851 15.622 5.43159 15.5779 5.31025 15.5338C5.28682 15.5257 5.2638 15.5166 5.24121 15.5062V14.1599C5.31398 14.1591 5.38454 14.1349 5.44259 14.091L7.75708 12.3558C7.82748 12.3028 7.87486 12.2247 7.8895 12.1378H11.8619C11.8477 12.195 11.8486 12.255 11.8647 12.3116L11.8757 12.3475L12.4412 14.3309C12.4663 14.4197 12.5273 14.4937 12.6095 14.5352" fill="#E6E7E8"/>
</g>
<path fill-rule="evenodd" clip-rule="evenodd" d="M15.9999 8.00001C16.0014 8.38889 15.9719 8.77726 15.9117 9.1614C15.8468 9.08567 15.752 9.04227 15.6523 9.04269H13.771C13.7614 9.04134 13.7517 9.0432 13.7434 9.04827C13.6652 9.05174 13.5908 9.08305 13.5337 9.13661L11.7158 5.50073C11.8054 5.45131 11.8697 5.36602 11.8923 5.26618L12.4634 2.70065C12.4863 2.59429 12.4588 2.48336 12.3889 2.39993L13.3682 2.07181C13.4372 2.13518 13.5034 2.19864 13.5696 2.2621C13.6882 2.37244 13.7986 2.48819 13.9062 2.6096C15.2564 4.07958 16.004 6.00392 15.9999 8.00001" fill="#E6E7E8"/>
<path fill-rule="evenodd" clip-rule="evenodd" d="M13.3683 2.07176L12.389 2.39997C12.3586 2.36418 12.321 2.33499 12.2787 2.31443L9.89523 1.12004C9.82044 1.08451 9.73574 1.07579 9.65527 1.09517V0.173737C9.74352 0.190405 9.82898 0.209612 9.91182 0.231696C11.1998 0.546201 12.3883 1.17885 13.3683 2.07176" fill="#C1AA72"/>
<mask id="mask1" style="mask-type:alpha" maskUnits="userSpaceOnUse" x="3" y="0" width="7" height="3">
<path fill-rule="evenodd" clip-rule="evenodd" d="M3.19995 0H9.65512V2.48276H3.19995V0Z" fill="white"/>
</mask>
<g mask="url(#mask1)">
<path fill-rule="evenodd" clip-rule="evenodd" d="M9.65512 0.173776V1.09521C9.63033 1.10054 9.60621 1.10891 9.58337 1.12L7.2358 2.29518C7.15829 2.33452 7.0983 2.40145 7.0675 2.48276H3.4317C3.45193 2.41592 3.45007 2.34425 3.42612 2.27868L3.41783 2.2621L3.19995 1.6C4.58336 0.558931 6.26851 -0.00281062 7.99993 -1.84057e-05C8.52529 -0.000949143 9.04938 0.0517644 9.56408 0.157276L9.65512 0.173776Z" fill="#E6E7E8"/>
</g>
<mask id="mask2" style="mask-type:alpha" maskUnits="userSpaceOnUse" x="0" y="5" width="3" height="8">
<path fill-rule="evenodd" clip-rule="evenodd" d="M0 5.22766H2.84966V12.2344H0V5.22766Z" fill="white"/>
</mask>
<g mask="url(#mask2)">
<path fill-rule="evenodd" clip-rule="evenodd" d="M2.74483 9.03717L2.4552 11.6469C2.44962 11.6866 2.45241 11.7269 2.4635 11.7655L1.21656 12.2344C1.16969 12.1572 1.12281 12.08 1.07585 12C1.00419 11.884 0.943433 11.7711 0.882766 11.6524C-0.0983152 9.74275 -0.269317 7.51854 0.40826 5.48141L1.4759 5.26895L1.59173 5.24416C1.6117 5.2412 1.63116 5.23561 1.64969 5.22766L1.65528 5.24137L2.84967 8.82479C2.78993 8.88038 2.75262 8.95594 2.74483 9.03717" fill="#E6E7E8"/>
</g>
<path fill-rule="evenodd" clip-rule="evenodd" d="M8.17929 5.23035L6.30064 9.13377C6.24251 9.07243 6.16416 9.03427 6.07997 9.02615L3.12555 8.73093C3.02436 8.72112 2.92384 8.7553 2.84963 8.82468L1.65524 5.24135L1.64966 5.22756C1.70567 5.20682 1.75449 5.17044 1.79037 5.1228C1.80171 5.11375 1.8111 5.10241 1.81795 5.08964L3.37101 2.60965L3.39031 2.57385C3.4096 2.54619 3.42364 2.51539 3.43177 2.48273H7.06756C7.03719 2.56176 7.03719 2.64924 7.06756 2.72827L7.92274 5.01239C7.96429 5.12484 8.06159 5.20742 8.17929 5.23035" fill="#ECF0F1"/>
<path fill-rule="evenodd" clip-rule="evenodd" d="M5.24131 14.16V15.5062C3.5725 14.8949 2.15584 13.7432 1.21655 12.2345L2.4634 11.7655C2.47821 11.8356 2.51612 11.8988 2.57103 11.9448L5.00414 14.0745C5.07006 14.131 5.1545 14.1616 5.24131 14.16" fill="#C1AA72"/>
<path fill-rule="evenodd" clip-rule="evenodd" d="M3.43166 2.48277C3.42354 2.51543 3.40958 2.54623 3.39028 2.57381L3.37099 2.60969L1.81785 5.08968C1.81108 5.10254 1.80169 5.11379 1.79026 5.12276C1.75439 5.17048 1.70557 5.20678 1.64955 5.22751C1.63111 5.23555 1.61165 5.24122 1.59168 5.24418L1.47576 5.26897L0.408203 5.48126C0.920701 3.93294 1.89493 2.57846 3.19991 1.60001L3.41787 2.2621L3.42616 2.27868C3.45002 2.34426 3.45197 2.41592 3.43166 2.48277" fill="#C1AA72"/>
<path fill-rule="evenodd" clip-rule="evenodd" d="M12.4635 2.70065L11.8925 5.26619C11.8699 5.36603 11.8056 5.4514 11.716 5.50073C11.6558 5.5295 11.5892 5.54177 11.5228 5.53661L8.21801 5.2359C8.20498 5.23539 8.19212 5.23353 8.17943 5.23031C8.06173 5.20747 7.96443 5.1248 7.9228 5.01235L7.0677 2.72824C7.03733 2.64929 7.03733 2.56172 7.0677 2.48278C7.09842 2.40146 7.15841 2.33462 7.23591 2.29519L9.58349 1.11992C9.60633 1.10892 9.63045 1.10055 9.65532 1.09513C9.73579 1.07576 9.82049 1.08447 9.89528 1.11992L12.2787 2.31448C12.321 2.33496 12.3586 2.36407 12.3891 2.39994C12.459 2.48337 12.4865 2.5943 12.4635 2.70065" fill="#D1D4D1"/>
<path fill-rule="evenodd" clip-rule="evenodd" d="M7.88962 12.1379C7.87498 12.2247 7.82768 12.3027 7.7572 12.3558L5.44279 14.091C5.38475 14.1349 5.31418 14.1591 5.24142 14.1599C5.15452 14.1615 5.07008 14.1311 5.00416 14.0745L2.57105 11.9448C2.51613 11.8988 2.47823 11.8356 2.46351 11.7655C2.45242 11.727 2.44963 11.6865 2.45513 11.6468L2.74484 9.03722C2.75263 8.95599 2.78994 8.88043 2.84968 8.82484C2.92388 8.75529 3.02432 8.7211 3.12551 8.731L6.08001 9.02622C6.16412 9.03426 6.24247 9.0725 6.30068 9.13376C6.31963 9.15491 6.3363 9.1781 6.35035 9.2028L7.85374 11.909C7.89122 11.979 7.90383 12.0597 7.88962 12.1379" fill="#D1D4D1"/>
<path fill-rule="evenodd" clip-rule="evenodd" d="M15.9117 9.16136C15.598 11.3309 14.4034 13.275 12.6097 14.5352C12.5274 14.4937 12.4664 14.4196 12.4414 14.331L11.8758 12.3475L11.8648 12.3116C11.8488 12.255 11.8478 12.1951 11.8621 12.1379C11.869 12.1071 11.8801 12.0774 11.8951 12.0496L11.9227 12L13.451 9.24411L13.4649 9.22202C13.4831 9.19004 13.5064 9.16119 13.5337 9.13648C13.5909 9.083 13.6652 9.0517 13.7435 9.04823C13.7517 9.04324 13.7614 9.04129 13.771 9.04273H15.6524C15.752 9.04231 15.8469 9.08563 15.9117 9.16136" fill="#ECF0F1"/>
<path fill-rule="evenodd" clip-rule="evenodd" d="M13.5336 9.1365C13.5062 9.1612 13.4829 9.19006 13.4647 9.22204L13.4509 9.24404L11.9226 12L11.895 12.0496C11.88 12.0774 11.8688 12.1071 11.8619 12.138H7.88947C7.90369 12.0598 7.89108 11.9791 7.85368 11.909L6.3502 9.20275C6.33624 9.17804 6.31949 9.15494 6.30054 9.13379L8.17919 5.23036C8.19188 5.23349 8.20482 5.23544 8.21777 5.23586L11.5226 5.53657C11.589 5.54182 11.6556 5.52947 11.7157 5.5007L13.5336 9.1365Z" fill="#C1AA72"/>
</svg>
