<svg width="17" height="20" viewBox="0 0 17 20" fill="none" xmlns="http://www.w3.org/2000/svg">
<path fill-rule="evenodd" clip-rule="evenodd" d="M1.396 17.8924H15.356V6.4654H1.396V17.8924ZM16.054 19.2884H0.698C0.312 19.2884 0 18.9764 0 18.5894V5.7674C0 5.3814 0.312 5.0694 0.698 5.0694H16.054C16.44 5.0694 16.752 5.3814 16.752 5.7674V18.5894C16.752 18.9764 16.44 19.2884 16.054 19.2884V19.2884Z" fill="white"/>
<path fill-rule="evenodd" clip-rule="evenodd" d="M8.26801 19.3662C7.88201 19.3662 7.57001 19.0542 7.57001 18.6682V5.82721C7.57001 5.44121 7.88201 5.12921 8.26801 5.12921C8.65401 5.12921 8.96601 5.44121 8.96601 5.82721V18.6682C8.96601 19.0542 8.65401 19.3662 8.26801 19.3662" fill="white"/>
<path fill-rule="evenodd" clip-rule="evenodd" d="M11.1064 1.396C10.6134 1.396 9.1654 1.396 9.0084 5.02C9.1024 5.017 9.2044 5.014 9.3144 5.011C9.7294 5 10.2384 4.987 10.7904 4.987C11.7464 4.987 12.9014 4.186 12.9014 3.191C12.9014 2.202 12.0964 1.396 11.1064 1.396M8.6544 6.421C8.1554 6.421 8.0004 6.375 7.8134 6.193C7.6794 6.062 7.5994 5.873 7.5994 5.685C7.5994 0.986 9.5064 0 11.1064 0C12.8664 0 14.2974 1.431 14.2974 3.191C14.2974 5.072 12.4494 6.383 10.7904 6.383C10.2534 6.383 9.7554 6.396 9.3514 6.406C9.0614 6.415 8.8354 6.421 8.6544 6.421" fill="white"/>
<path fill-rule="evenodd" clip-rule="evenodd" d="M5.40719 1.396C4.41719 1.396 3.61219 2.202 3.61219 3.191C3.61219 4.186 4.76719 4.987 5.72419 4.987C6.27619 4.987 6.78519 5 7.20019 5.011C7.31019 5.014 7.41219 5.017 7.50619 5.02C7.34919 1.396 5.90219 1.396 5.40719 1.396M7.86119 6.421C7.68019 6.421 7.45319 6.415 7.16319 6.406C6.75919 6.396 6.26119 6.383 5.72419 6.383C4.06519 6.383 2.21619 5.072 2.21619 3.191C2.21619 1.431 3.64719 0 5.40719 0C7.00819 0 8.91619 0.986 8.91619 5.685C8.91619 5.873 8.83519 6.062 8.70119 6.193C8.51419 6.375 8.35919 6.421 7.86119 6.421" fill="white"/>
</svg>
