<svg width="20" height="19" viewBox="0 0 20 19" fill="none" xmlns="http://www.w3.org/2000/svg">
<mask id="mask0" style="mask-type:alpha" maskUnits="userSpaceOnUse" x="0" y="0" width="20" height="19">
<path fill-rule="evenodd" clip-rule="evenodd" d="M0 0H19.5088V18.152H0V0Z" fill="white"/>
</mask>
<g mask="url(#mask0)">
<path fill-rule="evenodd" clip-rule="evenodd" d="M12.682 16.7561H15.539V10.2431C15.539 9.7111 15.972 9.2781 16.503 9.2781H17.502L9.78804 1.5661L2.00704 9.3471H3.21104C3.74304 9.3471 4.17504 9.7781 4.17504 10.3091V16.6871H7.03304V12.3701C7.03304 11.8381 7.46504 11.4051 7.99704 11.4051H11.717C12.249 11.4051 12.682 11.8381 12.682 12.3701V16.7561ZM15.971 18.1521H12.25C11.718 18.1521 11.286 17.7191 11.286 17.1871V12.8011H8.42904V17.1191C8.42904 17.6511 7.99504 18.0831 7.46404 18.0831H3.74404C3.21204 18.0831 2.77904 17.6521 2.77904 17.1211V10.7431H0.965038C0.573038 10.7431 0.224038 10.5091 0.0740381 10.1481C-0.0759619 9.7861 0.00603807 9.3741 0.283038 9.0971L9.10704 0.2731C9.46904 -0.0908995 10.105 -0.0918995 10.471 0.2731L19.225 9.0281C19.502 9.3051 19.585 9.7171 19.435 10.0791C19.285 10.4411 18.935 10.6741 18.544 10.6741H16.935V17.1871C16.935 17.7191 16.502 18.1521 15.971 18.1521V18.1521Z" fill="#EE2737"/>
</g>
</svg>
