<svg width="20" height="21" viewBox="0 0 20 21" fill="none" xmlns="http://www.w3.org/2000/svg">
<path fill-rule="evenodd" clip-rule="evenodd" d="M9.571 1.396C7.488 1.396 5.793 3.091 5.793 5.174C5.793 7.257 7.488 8.952 9.571 8.952C11.654 8.952 13.349 7.257 13.349 5.174C13.349 3.091 11.654 1.396 9.571 1.396M9.571 10.348C6.717 10.348 4.397 8.027 4.397 5.174C4.397 2.321 6.717 0 9.571 0C12.424 0 14.745 2.321 14.745 5.174C14.745 8.027 12.424 10.348 9.571 10.348" fill="white"/>
<path fill-rule="evenodd" clip-rule="evenodd" d="M8.55 19.2207H0.697C0.312 19.2207 0 18.9087 0 18.5227C0 13.2457 4.293 8.95169 9.571 8.95169C11.521 8.95169 13.398 9.53469 14.997 10.6377C15.315 10.8567 15.394 11.2917 15.175 11.6087C14.955 11.9237 14.521 12.0057 14.205 11.7867C12.84 10.8457 11.237 10.3477 9.571 10.3477C5.298 10.3477 1.78 13.6427 1.425 17.8247H8.55C8.936 17.8247 9.248 18.1377 9.248 18.5227C9.248 18.9087 8.936 19.2207 8.55 19.2207" fill="white"/>
<mask id="mask0" style="mask-type:alpha" maskUnits="userSpaceOnUse" x="9" y="11" width="11" height="10">
<path fill-rule="evenodd" clip-rule="evenodd" d="M9.89279 11.1512H19.7705V20.242H9.89279V11.1512Z" fill="white"/>
</mask>
<g mask="url(#mask0)">
<path fill-rule="evenodd" clip-rule="evenodd" d="M13.1828 20.2422C11.3698 20.2422 9.89279 18.7662 9.89279 16.9522C9.89279 15.1382 11.3698 13.6632 13.1828 13.6632H17.4618L16.2068 12.3252C15.9438 12.0442 15.9578 11.6032 16.2398 11.3392C16.5198 11.0762 16.9638 11.0912 17.2258 11.3712L19.5818 13.8842C19.7718 14.0872 19.8238 14.3842 19.7128 14.6392C19.6018 14.8942 19.3498 15.0592 19.0728 15.0592H13.1828C12.1388 15.0592 11.2888 15.9092 11.2888 16.9522C11.2888 17.9962 12.1388 18.8462 13.1828 18.8462C13.5688 18.8462 13.8808 19.1582 13.8808 19.5442C13.8808 19.9302 13.5688 20.2422 13.1828 20.2422" fill="white"/>
</g>
<path fill-rule="evenodd" clip-rule="evenodd" d="M16.7165 17.5723C16.5455 17.5723 16.3735 17.5093 16.2395 17.3833C15.9575 17.1193 15.9435 16.6773 16.2075 16.3973L18.5635 13.8843C18.8265 13.6013 19.2685 13.5893 19.5495 13.8523C19.8305 14.1163 19.8455 14.5573 19.5815 14.8393L17.2255 17.3513C17.0885 17.4973 16.9025 17.5723 16.7165 17.5723" fill="white"/>
</svg>
